PathFileType	4	(X/Y/Z)	s01c0402.trc
DataRate	CameraRate	NumFrames	NumMarkers	Units	OrigDataRate	OrigDataStartFrame	OrigNumFrames
200	200	4	48	mm	200	1750	2000
Frame#	Time	racr			lacr			c7			jug			rlel			rdr			llel			ldr			s2			lic			ric			lasi			rasi			rpsi			lpsi			rgt			lgt			rth1			rth2			rth3			rth4			rlfc			rsh1			rsh2			rsh3			rsh4			rlmal			rmmal			rcal			rtoe			rmt5			lth1			lth2			lth4			lth3			llfc			lsh1			lsh2			lsh3			lsh4			llmal			lmmal			lcal			ltoe			lmt5			SBIKE			LBIKE			RBIKE			
		X1	Y1	Z1	X2	Y2	Z2	X3	Y3	Z3	X4	Y4	Z4	X5	Y5	Z5	X6	Y6	Z6	X7	Y7	Z7	X8	Y8	Z8	X9	Y9	Z9	X10	Y10	Z10	X11	Y11	Z11	X12	Y12	Z12	X13	Y13	Z13	X14	Y14	Z14	X15	Y15	Z15	X16	Y16	Z16	X17	Y17	Z17	X18	Y18	Z18	X19	Y19	Z19	X20	Y20	Z20	X21	Y21	Z21	X22	Y22	Z22	X23	Y23	Z23	X24	Y24	Z24	X25	Y25	Z25	X26	Y26	Z26	X27	Y27	Z27	X28	Y28	Z28	X29	Y29	Z29	X30	Y30	Z30	X31	Y31	Z31	X32	Y32	Z32	X33	Y33	Z33	X34	Y34	Z34	X35	Y35	Z35	X36	Y36	Z36	X37	Y37	Z37	X38	Y38	Z38	X39	Y39	Z39	X40	Y40	Z40	X41	Y41	Z41	X42	Y42	Z42	X43	Y43	Z43	X44	Y44	Z44	X45	Y45	Z45	X46	Y46	Z46	X47	Y47	Z47	X48	Y48	Z48	
1750	8.7500	671.655884	1295.401123	-102.955605	698.455261	1269.663574	-479.446381	696.775208	1378.836426	-290.382324	662.502991	1218.287231	-283.111969	536.492310	1062.068115	17.280172	694.959778	887.282043	-39.459942	542.007507	1032.563599	-571.479553	680.118774	874.204102	-444.809998	147.981598	1223.865601	-287.177765	309.992371	1199.682373	-463.379303	311.923065	1210.412354	-141.131851	299.452789	1140.755859	-442.941681	329.298370	1160.822266	-170.599564	185.717682	1257.941040	-240.576797	180.206131	1253.836914	-346.773193	254.365952	1119.512207	-95.538643	205.563400	1064.291626	-475.232330	356.324005	1038.997803	-89.462303	430.745819	1001.967407	-91.833214	506.550079	955.047607	-104.180145	455.982788	1047.734131	-114.360077	571.386597	871.157593	-127.393501	475.336426	812.610474	-91.305374	408.480682	760.695618	-89.361885	332.862732	713.317810	-94.234665	435.649628	720.232971	-124.792908	224.513031	649.106201	-104.337730	261.851166	628.613464	-184.577209	170.254395	657.003540	-158.531326	342.076019	447.251373	-134.288513	248.528671	505.944031	-69.118584	216.454880	934.643738	-476.698639	258.656830	852.369080	-471.999146	303.045349	874.709473	-475.565643	281.759644	775.586304	-451.379395	312.900543	659.039307	-434.913757	246.057419	566.589478	-461.788055	225.625046	482.545990	-453.263275	203.206284	400.959534	-436.707977	281.711700	471.875061	-429.472473	170.769974	280.181946	-416.160248	0.000000	0.000000	-0.000000	119.948616	267.343781	-374.474976	366.380157	139.803452	-370.888062	264.032410	160.123352	-441.045135	-224.409164	893.363953	-252.584396	-12.522943	84.841652	-456.063263	-21.576750	81.168671	-55.953308	
1751	8.7550	671.575134	1296.192261	-103.960243	698.013977	1270.396484	-479.784363	696.391724	1379.216675	-290.942078	662.028442	1218.788940	-283.686188	537.145020	1062.696167	17.129364	695.094666	887.365723	-39.482079	542.422791	1032.735474	-571.592224	679.988037	874.026306	-444.530487	147.588013	1224.456787	-287.093048	309.821838	1199.161133	-462.992157	311.744385	1210.890503	-141.443695	298.620239	1140.848145	-442.952118	328.809875	1160.919678	-170.922470	185.289352	1258.397705	-240.549423	179.578522	1254.221802	-346.774200	254.174179	1119.770874	-95.515976	204.243713	1064.448242	-475.036072	355.543854	1038.395630	-89.551323	429.636139	1000.717041	-92.009666	505.278076	953.268250	-104.521210	455.173553	1046.322144	-114.725777	568.901733	868.750488	-127.639458	472.017883	811.220093	-91.634209	404.916809	759.681641	-89.544365	329.090576	712.579285	-94.321426	432.071960	718.706970	-124.383301	220.782242	648.705627	-104.372780	257.706970	627.850220	-184.578964	166.719025	657.181946	-158.609741	336.323059	445.587036	-134.260437	243.092026	505.219940	-69.261658	215.122681	934.919006	-476.236816	257.654358	852.778564	-471.840363	301.697937	874.810486	-475.669067	280.231628	775.752502	-450.984955	312.544739	659.432434	-434.677307	246.422012	566.389465	-461.453125	226.713440	482.180054	-452.862122	205.098938	400.419525	-436.223877	283.054840	471.882690	-429.298981	174.000732	279.416840	-415.779541	0.000000	0.000000	-0.000000	123.422340	265.779510	-374.155914	371.580841	141.674683	-370.872986	268.934296	160.621902	-441.014709	-224.391296	893.336121	-252.580353	-12.528274	84.821022	-456.058502	-21.592333	81.160271	-55.955090	
1752	8.7600	671.490662	1296.716797	-104.675964	697.507385	1271.014771	-480.135162	695.897644	1379.618286	-291.583466	661.631165	1219.229736	-284.112915	537.965942	1063.367798	16.878422	695.240479	887.424866	-39.513927	542.922974	1032.857910	-571.559631	679.831055	873.844788	-444.217590	147.083069	1224.858643	-287.019958	309.619781	1198.324341	-462.562225	311.507111	1211.256958	-141.671722	297.826416	1140.741821	-442.727020	328.299316	1160.834473	-171.235519	184.788300	1258.792847	-240.545670	178.819092	1254.577393	-346.803986	253.924973	1119.959351	-95.494751	203.196045	1064.451904	-474.846252	354.765808	1037.822388	-89.653786	428.562103	999.441589	-92.214020	504.319641	951.441528	-104.891792	454.265594	1044.679077	-115.051186	566.228638	866.274841	-127.615570	468.662994	809.580872	-91.954140	401.292542	758.389771	-89.621170	325.119324	711.777100	-93.999794	428.437897	717.054932	-124.075905	217.044556	648.003479	-104.387810	253.490433	626.954346	-184.584900	163.190933	656.984253	-158.647461	330.821075	443.969635	-134.240265	238.108841	504.370483	-69.303619	214.145401	935.055847	-475.530945	256.866058	853.152039	-471.689697	300.553894	874.906555	-475.978943	279.364288	775.896423	-450.817474	312.442535	659.752136	-434.001312	247.006226	566.236450	-461.138855	227.994064	481.863617	-452.406586	207.005875	399.948914	-435.758881	284.445526	472.019897	-429.074341	177.025497	278.741364	-415.311218	0.000000	0.000000	-0.000000	126.687828	264.437408	-373.761169	376.420135	143.691010	-370.903076	273.489197	161.196045	-440.880341	-224.379578	893.306702	-252.572006	-12.640103	84.491997	-456.222046	-21.587868	81.152008	-55.945618	
1753	8.7650	671.269897	1297.540894	-105.611893	697.026184	1271.609741	-480.455383	695.440674	1379.992432	-292.208588	661.166199	1219.653198	-284.701599	538.701294	1064.041748	16.795523	695.354004	887.495605	-39.509571	543.282959	1032.910400	-571.727295	679.665222	873.662231	-443.902649	146.538208	1225.113037	-287.007507	309.427063	1197.529541	-462.205048	311.222443	1211.471924	-141.865204	297.090027	1140.650635	-442.518494	327.781982	1160.623047	-171.438049	184.229202	1259.138306	-240.559097	178.108826	1254.829834	-346.958557	253.616791	1120.059570	-95.513733	202.308685	1064.429565	-474.713226	353.989838	1037.012817	-89.696671	427.444580	998.105286	-92.319405	503.042603	949.510498	-105.149467	453.535858	1043.225342	-115.355072	563.320801	863.510254	-127.046379	465.290131	807.615356	-92.038681	397.746429	756.681030	-89.581223	321.350983	710.515503	-93.980354	424.807892	715.084106	-123.753502	213.182281	647.094421	-104.333954	249.215698	625.962280	-184.597321	159.549988	656.584412	-158.686218	325.759399	442.452637	-134.240601	233.339981	503.463074	-69.286316	213.400879	935.191589	-475.285522	256.299591	853.495728	-471.549347	299.799622	875.038940	-476.228485	278.519043	776.227295	-450.411591	312.715332	660.063843	-433.595215	247.845703	566.190247	-460.788879	229.287079	481.790588	-452.069244	208.878937	399.714966	-435.329712	285.901642	472.262878	-428.812164	179.827286	278.276917	-414.859283	0.000000	0.000000	-0.000000	129.756851	263.278717	-373.383667	380.957428	145.700104	-370.981873	277.716553	161.931839	-440.797272	-224.387985	893.289124	-252.578247	-12.641856	84.468529	-456.229004	-21.587698	81.135765	-55.958912	
